<svg xmlns="http://www.w3.org/2000/svg" width="279" height="27" viewBox="0 0 279 27"><defs><style>.a,.d{fill:#ed2529;}.b{fill:#fff9f9;font-size:14px;font-family:OpenSans-Bold, Open Sans;font-weight:700;}.c{fill:#fff;}.d{stroke:rgba(0,0,0,0);stroke-miterlimit:10;}</style></defs><g transform="translate(-231 -1993)"><rect class="a" width="279" height="27" rx="13.5" transform="translate(231 1993)"/><text class="b" transform="translate(259 2012)"><tspan x="0" y="0">*CONOCER TASAS Y TARIFAS</tspan></text><g transform="translate(-113 47)"><circle class="c" cx="8" cy="8" r="8" transform="translate(583 1952)"/><g transform="translate(588.333 1956.148)"><path class="d" d="M.387,7.434a1.321,1.321,0,0,1,0-1.87L2.041,3.911.387,2.256A1.322,1.322,0,1,1,2.257.387L4.845,2.976a1.321,1.321,0,0,1,0,1.87L2.257,7.434a1.322,1.322,0,0,1-1.87,0Z" transform="translate(0.001 0.001)"/></g></g></g></svg>